<mxfile host="app.diagrams.net" modified="2021-10-24T13:44:46.791Z" agent="5.0 (Windows NT 10.0; Win64; x64) AppleWebKit/537.36 (KHTML, like Gecko) Chrome/95.0.4638.54 Safari/537.36 Edg/95.0.1020.30" etag="niKceQYtCapsOjZ65JGX" version="15.5.9" type="github">
  <diagram name="Page-1" id="e7e014a7-5840-1c2e-5031-d8a46d1fe8dd">
    <mxGraphModel dx="1157" dy="693" grid="1" gridSize="10" guides="1" tooltips="1" connect="1" arrows="1" fold="1" page="1" pageScale="1" pageWidth="1169" pageHeight="826" background="none" math="0" shadow="0">
      <root>
        <mxCell id="0" />
        <mxCell id="1" parent="0" />
        <mxCell id="2" value="Customer" style="swimlane;whiteSpace=wrap" parent="1" vertex="1">
          <mxGeometry x="164.5" y="128" width="280" height="692" as="geometry" />
        </mxCell>
        <mxCell id="ol4J8Zik1eTWDtKU-2_t-74" style="edgeStyle=orthogonalEdgeStyle;rounded=0;orthogonalLoop=1;jettySize=auto;html=1;exitX=0.5;exitY=1;exitDx=0;exitDy=0;entryX=0.5;entryY=0;entryDx=0;entryDy=0;" edge="1" parent="2" source="5" target="ol4J8Zik1eTWDtKU-2_t-60">
          <mxGeometry relative="1" as="geometry" />
        </mxCell>
        <mxCell id="5" value="" style="ellipse;shape=startState;fillColor=#000000;strokeColor=#ff0000;" parent="2" vertex="1">
          <mxGeometry x="90.75" y="40" width="69.5" height="60" as="geometry" />
        </mxCell>
        <mxCell id="ol4J8Zik1eTWDtKU-2_t-60" value="Yêu cầu thay đổi&amp;nbsp;" style="rounded=1;whiteSpace=wrap;html=1;fillColor=#ffe6cc;strokeColor=#d79b00;" vertex="1" parent="2">
          <mxGeometry x="65.5" y="142" width="120" height="60" as="geometry" />
        </mxCell>
        <mxCell id="ol4J8Zik1eTWDtKU-2_t-64" value="" style="ellipse;shape=startState;fillColor=#000000;strokeColor=#ff0000;" vertex="1" parent="2">
          <mxGeometry x="110.5" y="520" width="79.5" height="70" as="geometry" />
        </mxCell>
        <mxCell id="3" value="PO" style="swimlane;whiteSpace=wrap" parent="1" vertex="1">
          <mxGeometry x="444.5" y="128" width="280" height="692" as="geometry" />
        </mxCell>
        <mxCell id="ol4J8Zik1eTWDtKU-2_t-76" style="edgeStyle=orthogonalEdgeStyle;rounded=0;orthogonalLoop=1;jettySize=auto;html=1;exitX=0.5;exitY=1;exitDx=0;exitDy=0;" edge="1" parent="3" source="ol4J8Zik1eTWDtKU-2_t-61" target="ol4J8Zik1eTWDtKU-2_t-62">
          <mxGeometry relative="1" as="geometry" />
        </mxCell>
        <mxCell id="ol4J8Zik1eTWDtKU-2_t-61" value="Tiếp nhận yêu cầu&amp;nbsp;" style="rounded=1;whiteSpace=wrap;html=1;fillColor=#ffe6cc;strokeColor=#d79b00;" vertex="1" parent="3">
          <mxGeometry x="85.5" y="142" width="120" height="60" as="geometry" />
        </mxCell>
        <mxCell id="ol4J8Zik1eTWDtKU-2_t-77" value="&lt;b&gt;Không&amp;nbsp; đồng ý&amp;nbsp;&lt;/b&gt;" style="edgeStyle=orthogonalEdgeStyle;rounded=0;orthogonalLoop=1;jettySize=auto;html=1;exitX=0.5;exitY=1;exitDx=0;exitDy=0;" edge="1" parent="3" source="ol4J8Zik1eTWDtKU-2_t-62" target="ol4J8Zik1eTWDtKU-2_t-63">
          <mxGeometry relative="1" as="geometry" />
        </mxCell>
        <mxCell id="ol4J8Zik1eTWDtKU-2_t-62" value="Phê duyệt yêu cầu&amp;nbsp;" style="rhombus;whiteSpace=wrap;html=1;fillColor=#b0e3e6;strokeColor=#0e8088;" vertex="1" parent="3">
          <mxGeometry x="94.63" y="260" width="101.75" height="92" as="geometry" />
        </mxCell>
        <mxCell id="ol4J8Zik1eTWDtKU-2_t-63" value="Không chấp nhận thay đỏi&amp;nbsp;" style="rounded=1;whiteSpace=wrap;html=1;fillColor=#ffe6cc;strokeColor=#d79b00;" vertex="1" parent="3">
          <mxGeometry x="85.51" y="422" width="120" height="60" as="geometry" />
        </mxCell>
        <mxCell id="ol4J8Zik1eTWDtKU-2_t-66" value="Cập nhật Product Backlog" style="rounded=1;whiteSpace=wrap;html=1;fillColor=#ffe6cc;strokeColor=#d79b00;" vertex="1" parent="3">
          <mxGeometry x="85.5" y="632" width="120" height="60" as="geometry" />
        </mxCell>
        <mxCell id="ol4J8Zik1eTWDtKU-2_t-41" value="SCRUM Team" style="swimlane;whiteSpace=wrap" vertex="1" parent="1">
          <mxGeometry x="1004.5" y="130" width="395.5" height="688" as="geometry" />
        </mxCell>
        <mxCell id="4" value="PM" style="swimlane;whiteSpace=wrap" parent="ol4J8Zik1eTWDtKU-2_t-41" vertex="1">
          <mxGeometry x="-280" width="280" height="690" as="geometry" />
        </mxCell>
        <mxCell id="ol4J8Zik1eTWDtKU-2_t-86" style="edgeStyle=orthogonalEdgeStyle;rounded=0;orthogonalLoop=1;jettySize=auto;html=1;exitX=0.5;exitY=1;exitDx=0;exitDy=0;entryX=0.5;entryY=0;entryDx=0;entryDy=0;" edge="1" parent="4" source="ol4J8Zik1eTWDtKU-2_t-67" target="ol4J8Zik1eTWDtKU-2_t-68">
          <mxGeometry relative="1" as="geometry" />
        </mxCell>
        <mxCell id="ol4J8Zik1eTWDtKU-2_t-67" value="Phân tích ảnh hưởng kiến trúc&amp;nbsp;" style="rounded=1;whiteSpace=wrap;html=1;fillColor=#ffe6cc;strokeColor=#d79b00;" vertex="1" parent="4">
          <mxGeometry x="105.5" y="182" width="120" height="60" as="geometry" />
        </mxCell>
        <mxCell id="ol4J8Zik1eTWDtKU-2_t-85" style="edgeStyle=orthogonalEdgeStyle;rounded=0;orthogonalLoop=1;jettySize=auto;html=1;exitX=0;exitY=0.5;exitDx=0;exitDy=0;entryX=0;entryY=0.5;entryDx=0;entryDy=0;" edge="1" parent="4" source="ol4J8Zik1eTWDtKU-2_t-68" target="ol4J8Zik1eTWDtKU-2_t-67">
          <mxGeometry relative="1" as="geometry">
            <Array as="points">
              <mxPoint x="46" y="396" />
              <mxPoint x="46" y="212" />
            </Array>
          </mxGeometry>
        </mxCell>
        <mxCell id="ol4J8Zik1eTWDtKU-2_t-95" value="Không đồng ý&amp;nbsp;" style="edgeLabel;html=1;align=center;verticalAlign=middle;resizable=0;points=[];fontSize=13;fontFamily=Times New Roman;" vertex="1" connectable="0" parent="ol4J8Zik1eTWDtKU-2_t-85">
          <mxGeometry x="-0.0855" y="-2" relative="1" as="geometry">
            <mxPoint as="offset" />
          </mxGeometry>
        </mxCell>
        <mxCell id="ol4J8Zik1eTWDtKU-2_t-68" value="Phê duyệt những phân tích&amp;nbsp;" style="rhombus;whiteSpace=wrap;html=1;fillColor=#b0e3e6;strokeColor=#0e8088;" vertex="1" parent="4">
          <mxGeometry x="117.75" y="350" width="95.5" height="92" as="geometry" />
        </mxCell>
        <mxCell id="ol4J8Zik1eTWDtKU-2_t-72" value="Cập nhật Plan&amp;nbsp;" style="rounded=1;whiteSpace=wrap;html=1;fillColor=#ffe6cc;strokeColor=#d79b00;" vertex="1" parent="4">
          <mxGeometry x="80" y="630" width="120" height="60" as="geometry" />
        </mxCell>
        <mxCell id="ol4J8Zik1eTWDtKU-2_t-70" value="Phê duyệt sau ước lượng&amp;nbsp;" style="rhombus;whiteSpace=wrap;html=1;fillColor=#b0e3e6;strokeColor=#0e8088;" vertex="1" parent="ol4J8Zik1eTWDtKU-2_t-41">
          <mxGeometry x="80" y="512" width="95.5" height="80" as="geometry" />
        </mxCell>
        <mxCell id="ol4J8Zik1eTWDtKU-2_t-69" value="Thực hiện ước lượng&amp;nbsp;" style="rounded=1;whiteSpace=wrap;html=1;fillColor=#ffe6cc;strokeColor=#d79b00;" vertex="1" parent="ol4J8Zik1eTWDtKU-2_t-41">
          <mxGeometry x="205.5" y="366" width="190" height="60" as="geometry" />
        </mxCell>
        <mxCell id="ol4J8Zik1eTWDtKU-2_t-87" style="edgeStyle=orthogonalEdgeStyle;rounded=0;orthogonalLoop=1;jettySize=auto;html=1;exitX=1;exitY=0.5;exitDx=0;exitDy=0;entryX=0;entryY=0.5;entryDx=0;entryDy=0;" edge="1" parent="ol4J8Zik1eTWDtKU-2_t-41" source="ol4J8Zik1eTWDtKU-2_t-68" target="ol4J8Zik1eTWDtKU-2_t-69">
          <mxGeometry relative="1" as="geometry" />
        </mxCell>
        <mxCell id="ol4J8Zik1eTWDtKU-2_t-96" value="Đòng ý&amp;nbsp;" style="edgeLabel;html=1;align=center;verticalAlign=middle;resizable=0;points=[];fontSize=13;fontFamily=Times New Roman;" vertex="1" connectable="0" parent="ol4J8Zik1eTWDtKU-2_t-87">
          <mxGeometry x="-0.217" y="3" relative="1" as="geometry">
            <mxPoint as="offset" />
          </mxGeometry>
        </mxCell>
        <mxCell id="ol4J8Zik1eTWDtKU-2_t-88" style="edgeStyle=orthogonalEdgeStyle;rounded=0;orthogonalLoop=1;jettySize=auto;html=1;exitX=0.5;exitY=1;exitDx=0;exitDy=0;entryX=0.5;entryY=0;entryDx=0;entryDy=0;" edge="1" parent="ol4J8Zik1eTWDtKU-2_t-41" source="ol4J8Zik1eTWDtKU-2_t-69" target="ol4J8Zik1eTWDtKU-2_t-70">
          <mxGeometry relative="1" as="geometry" />
        </mxCell>
        <mxCell id="ol4J8Zik1eTWDtKU-2_t-90" style="edgeStyle=orthogonalEdgeStyle;rounded=0;orthogonalLoop=1;jettySize=auto;html=1;exitX=1;exitY=0.5;exitDx=0;exitDy=0;entryX=1;entryY=0.5;entryDx=0;entryDy=0;" edge="1" parent="ol4J8Zik1eTWDtKU-2_t-41" source="ol4J8Zik1eTWDtKU-2_t-70" target="ol4J8Zik1eTWDtKU-2_t-69">
          <mxGeometry relative="1" as="geometry">
            <Array as="points">
              <mxPoint x="486" y="552" />
              <mxPoint x="486" y="396" />
            </Array>
          </mxGeometry>
        </mxCell>
        <mxCell id="ol4J8Zik1eTWDtKU-2_t-97" value="Không đồng ý&amp;nbsp;" style="edgeLabel;html=1;align=center;verticalAlign=middle;resizable=0;points=[];fontSize=13;fontFamily=Times New Roman;" vertex="1" connectable="0" parent="ol4J8Zik1eTWDtKU-2_t-90">
          <mxGeometry x="0.4426" y="2" relative="1" as="geometry">
            <mxPoint as="offset" />
          </mxGeometry>
        </mxCell>
        <mxCell id="ol4J8Zik1eTWDtKU-2_t-47" value="QC" style="swimlane;whiteSpace=wrap" vertex="1" parent="1">
          <mxGeometry x="1290" y="130" width="280" height="692" as="geometry" />
        </mxCell>
        <mxCell id="ol4J8Zik1eTWDtKU-2_t-71" value="Cập nhật Testcase" style="rounded=1;whiteSpace=wrap;html=1;fillColor=#ffe6cc;strokeColor=#d79b00;" vertex="1" parent="ol4J8Zik1eTWDtKU-2_t-47">
          <mxGeometry x="105.5" y="630" width="120" height="60" as="geometry" />
        </mxCell>
        <mxCell id="ol4J8Zik1eTWDtKU-2_t-75" style="edgeStyle=orthogonalEdgeStyle;rounded=0;orthogonalLoop=1;jettySize=auto;html=1;exitX=1;exitY=0.5;exitDx=0;exitDy=0;entryX=0;entryY=0.5;entryDx=0;entryDy=0;" edge="1" parent="1" source="ol4J8Zik1eTWDtKU-2_t-60" target="ol4J8Zik1eTWDtKU-2_t-61">
          <mxGeometry relative="1" as="geometry" />
        </mxCell>
        <mxCell id="ol4J8Zik1eTWDtKU-2_t-82" style="edgeStyle=orthogonalEdgeStyle;rounded=0;orthogonalLoop=1;jettySize=auto;html=1;exitX=0;exitY=0.5;exitDx=0;exitDy=0;entryX=0.5;entryY=0;entryDx=0;entryDy=0;" edge="1" parent="1" source="ol4J8Zik1eTWDtKU-2_t-63" target="ol4J8Zik1eTWDtKU-2_t-64">
          <mxGeometry relative="1" as="geometry" />
        </mxCell>
        <mxCell id="ol4J8Zik1eTWDtKU-2_t-83" style="edgeStyle=orthogonalEdgeStyle;rounded=0;orthogonalLoop=1;jettySize=auto;html=1;exitX=0;exitY=0.5;exitDx=0;exitDy=0;entryX=0.5;entryY=1;entryDx=0;entryDy=0;" edge="1" parent="1" source="ol4J8Zik1eTWDtKU-2_t-66" target="ol4J8Zik1eTWDtKU-2_t-64">
          <mxGeometry relative="1" as="geometry" />
        </mxCell>
        <mxCell id="ol4J8Zik1eTWDtKU-2_t-84" style="edgeStyle=orthogonalEdgeStyle;rounded=0;orthogonalLoop=1;jettySize=auto;html=1;exitX=1;exitY=0.5;exitDx=0;exitDy=0;entryX=0.5;entryY=0;entryDx=0;entryDy=0;" edge="1" parent="1" source="ol4J8Zik1eTWDtKU-2_t-62" target="ol4J8Zik1eTWDtKU-2_t-67">
          <mxGeometry relative="1" as="geometry">
            <Array as="points">
              <mxPoint x="690" y="434" />
              <mxPoint x="690" y="292" />
              <mxPoint x="890" y="292" />
            </Array>
          </mxGeometry>
        </mxCell>
        <mxCell id="ol4J8Zik1eTWDtKU-2_t-94" value="&lt;p style=&quot;font-size: 13px&quot;&gt;Đồng ý&amp;nbsp;&lt;/p&gt;" style="edgeLabel;html=1;align=center;verticalAlign=middle;resizable=0;points=[];" vertex="1" connectable="0" parent="ol4J8Zik1eTWDtKU-2_t-84">
          <mxGeometry x="-0.3436" y="-1" relative="1" as="geometry">
            <mxPoint as="offset" />
          </mxGeometry>
        </mxCell>
        <mxCell id="ol4J8Zik1eTWDtKU-2_t-89" style="edgeStyle=orthogonalEdgeStyle;rounded=0;orthogonalLoop=1;jettySize=auto;html=1;exitX=0.5;exitY=1;exitDx=0;exitDy=0;entryX=0.5;entryY=0;entryDx=0;entryDy=0;" edge="1" parent="1" source="ol4J8Zik1eTWDtKU-2_t-70" target="ol4J8Zik1eTWDtKU-2_t-71">
          <mxGeometry relative="1" as="geometry">
            <Array as="points">
              <mxPoint x="1132" y="730" />
              <mxPoint x="1456" y="730" />
            </Array>
          </mxGeometry>
        </mxCell>
        <mxCell id="ol4J8Zik1eTWDtKU-2_t-98" value="Đồng ý&amp;nbsp;" style="edgeLabel;html=1;align=center;verticalAlign=middle;resizable=0;points=[];fontSize=13;fontFamily=Times New Roman;" vertex="1" connectable="0" parent="ol4J8Zik1eTWDtKU-2_t-89">
          <mxGeometry x="-0.5124" y="-1" relative="1" as="geometry">
            <mxPoint as="offset" />
          </mxGeometry>
        </mxCell>
        <mxCell id="ol4J8Zik1eTWDtKU-2_t-91" style="edgeStyle=orthogonalEdgeStyle;rounded=0;orthogonalLoop=1;jettySize=auto;html=1;exitX=0;exitY=0.5;exitDx=0;exitDy=0;" edge="1" parent="1" source="ol4J8Zik1eTWDtKU-2_t-71" target="ol4J8Zik1eTWDtKU-2_t-72">
          <mxGeometry relative="1" as="geometry" />
        </mxCell>
        <mxCell id="ol4J8Zik1eTWDtKU-2_t-92" style="edgeStyle=orthogonalEdgeStyle;rounded=0;orthogonalLoop=1;jettySize=auto;html=1;exitX=0;exitY=0.5;exitDx=0;exitDy=0;entryX=1;entryY=0.5;entryDx=0;entryDy=0;" edge="1" parent="1" source="ol4J8Zik1eTWDtKU-2_t-72" target="ol4J8Zik1eTWDtKU-2_t-66">
          <mxGeometry relative="1" as="geometry" />
        </mxCell>
      </root>
    </mxGraphModel>
  </diagram>
</mxfile>
